<svg width="58" height="58" viewBox="0 0 58 58" fill="none" xmlns="http://www.w3.org/2000/svg">
<path d="M55.483 16.7669V40.3941C55.483 48.5495 48.8716 55.161 40.7161 55.161H17.089C8.93342 55.161 2.32202 48.5495 2.32202 40.3941V16.7669C2.32202 8.6114 8.93342 2 17.089 2H40.7161C48.8716 2 55.483 8.6114 55.483 16.7669Z" stroke="#1E1E1E" stroke-width="4" stroke-linecap="round" stroke-linejoin="round"/>
<path d="M20.3335 28.0669C27.8209 28.0669 27.8209 40.3941 20.3335 40.3941C16.1099 40.3941 11.1821 40.3941 11.1821 40.3941V28.0669M20.3335 28.0669C16.1099 28.0669 11.1821 28.0669 11.1821 28.0669M20.3335 28.0669C27.8209 28.0669 27.8209 16.767 20.3335 16.767C17.0057 16.767 11.1821 16.767 11.1821 16.767V28.0669" stroke="#1E1E1E" stroke-width="4" stroke-linecap="round" stroke-linejoin="round"/>
<path d="M39.2394 25.6271C35.1617 25.6271 31.856 28.9328 31.856 33.0105H46.6229C46.6229 28.9328 43.3172 25.6271 39.2394 25.6271Z" stroke="#1E1E1E" stroke-width="4" stroke-linecap="round" stroke-linejoin="round"/>
<path d="M31.856 33.0106C31.856 37.0884 35.1617 40.3941 39.2394 40.3941C41.979 40.3941 43.6415 39.4419 44.5927 38.5636" stroke="#1E1E1E" stroke-width="4" stroke-linecap="round" stroke-linejoin="round"/>
<path d="M43.6695 18.2437H34.8093" stroke="#1E1E1E" stroke-width="4" stroke-linecap="round" stroke-linejoin="round"/>
</svg>
