<svg width="58" height="58" viewBox="0 0 58 58" fill="none" xmlns="http://www.w3.org/2000/svg">
<path d="M28.7416 55.161C43.4215 55.161 55.3221 43.2604 55.3221 28.5805C55.3221 13.9005 43.4215 2 28.7416 2C14.0616 2 2.16113 13.9005 2.16113 28.5805C2.16113 43.2604 14.0616 55.161 28.7416 55.161Z" stroke="#1E1E1E" stroke-width="4" stroke-linecap="round" stroke-linejoin="round"/>
<path d="M34.9437 47.1869V42.2349C35.0102 41.4122 34.8961 40.5851 34.6088 39.8086C34.3217 39.0322 33.868 38.3241 33.2782 37.7316C38.8423 37.1277 44.69 35.0744 44.69 25.6537C44.6894 23.2446 43.7379 20.928 42.0319 19.1833C42.8397 17.0757 42.7826 14.7461 41.8724 12.6784C41.8724 12.6784 39.7814 12.0745 34.9437 15.2321C30.8822 14.1603 26.6011 14.1603 22.5395 15.2321C17.7019 12.0745 15.6109 12.6784 15.6109 12.6784C14.7007 14.7461 14.6436 17.0757 15.4514 19.1833C13.7328 20.941 12.7801 23.2785 12.7933 25.7053C12.7933 35.0571 18.6411 37.1105 24.2052 37.7832C23.6223 38.3698 23.1726 39.0694 22.8856 39.8365C22.5986 40.6034 22.4807 41.4205 22.5395 42.2349V47.1869" stroke="#1E1E1E" stroke-width="4" stroke-linecap="round" stroke-linejoin="round"/>
<path d="M22.5395 43.7361C17.2234 45.4152 12.7933 43.7361 10.1353 38.5598" stroke="#1E1E1E" stroke-width="4" stroke-linecap="round" stroke-linejoin="round"/>
</svg>
